<?xml version="1.0" standalone="no"?>
<!DOCTYPE svg PUBLIC "-//W3C//DTD SVG 20010904//EN"
 "http://www.w3.org/TR/2001/REC-SVG-20010904/DTD/svg10.dtd">
<svg version="1.0" xmlns="http://www.w3.org/2000/svg"
 width="384.000000pt" height="384.000000pt" viewBox="0 0 384.000000 384.000000"
 preserveAspectRatio="xMidYMid meet">
<metadata>
Created by potrace 1.10, written by Peter Selinger 2001-2011
</metadata>
<g transform="translate(0.000000,384.000000) scale(0.100000,-0.100000)"
fill="#037af5" stroke="none">
<path d="M1565 3789 c-22 -5 -67 -13 -99 -18 -32 -6 -64 -15 -69 -20 -6 -6
-25 -11 -42 -11 -17 0 -40 -7 -51 -15 -10 -8 -29 -15 -41 -15 -12 0 -34 -6
-50 -14 -15 -7 -44 -20 -63 -29 -63 -27 -184 -88 -215 -108 -16 -10 -37 -22
-45 -26 -8 -3 -31 -19 -51 -35 -20 -15 -41 -28 -46 -28 -5 0 -22 -12 -39 -28
-16 -15 -51 -45 -78 -67 -67 -54 -183 -169 -231 -230 -22 -27 -52 -63 -67 -79
-16 -17 -28 -34 -28 -39 0 -5 -13 -26 -28 -46 -16 -20 -32 -43 -35 -51 -4 -8
-16 -28 -27 -45 -11 -16 -24 -40 -29 -52 -5 -11 -15 -24 -20 -28 -6 -3 -11
-14 -11 -24 0 -10 -7 -24 -15 -31 -8 -7 -15 -23 -15 -35 0 -12 -7 -28 -15 -35
-8 -7 -15 -22 -15 -34 0 -11 -7 -30 -15 -40 -8 -11 -15 -29 -15 -40 0 -12 -7
-30 -15 -40 -8 -11 -15 -31 -15 -44 0 -13 -5 -33 -11 -44 -6 -11 -15 -44 -20
-72 -4 -28 -12 -71 -17 -96 -10 -55 -1 -167 13 -160 6 2 18 34 28 70 10 36 27
94 37 130 61 218 124 371 215 520 28 47 58 96 66 110 8 14 30 43 49 66 19 23
55 66 80 97 24 31 55 62 67 68 13 7 23 16 23 20 0 5 15 22 33 38 17 17 56 53
86 81 30 27 60 50 67 50 7 0 18 9 24 20 6 11 25 27 43 36 18 9 34 20 37 23 8
10 190 114 232 134 100 45 243 93 373 125 44 11 107 28 140 37 33 10 81 20
107 24 93 14 68 27 -67 34 -44 2 -98 0 -120 -4z"/>
<path d="M2130 3793 c-86 -4 -126 -13 -109 -24 8 -5 27 -9 42 -9 15 0 40 -6
55 -13 15 -8 54 -19 87 -26 33 -7 88 -22 122 -32 34 -10 68 -19 74 -19 21 0
193 -71 212 -87 9 -9 17 -22 17 -29 0 -7 9 -19 21 -28 19 -13 20 -18 10 -48
-13 -39 -58 -68 -107 -68 -19 0 -81 16 -137 34 -221 75 -504 103 -720 72 -64
-10 -132 -22 -150 -27 -17 -6 -64 -19 -103 -29 -78 -19 -234 -83 -276 -112
-14 -10 -33 -18 -41 -18 -9 0 -19 -4 -22 -10 -3 -5 -25 -18 -48 -28 -23 -11
-53 -31 -66 -46 -14 -14 -30 -26 -36 -26 -6 0 -21 -10 -32 -22 -12 -13 -42
-39 -68 -58 -54 -41 -127 -111 -172 -166 -67 -81 -193 -259 -193 -273 0 -4
-20 -46 -44 -93 -65 -128 -123 -321 -144 -478 -8 -60 -8 -383 0 -440 13 -91
20 -125 28 -145 4 -11 14 -42 20 -70 26 -106 103 -286 178 -415 60 -102 213
-281 312 -364 55 -47 182 -139 220 -160 19 -11 40 -25 45 -31 6 -6 35 -22 65
-35 30 -12 78 -33 105 -46 100 -46 261 -92 382 -108 147 -21 488 -13 568 13
17 5 55 15 85 21 30 7 74 20 97 31 24 10 50 19 58 19 9 0 59 20 112 45 52 25
97 45 99 45 2 0 23 13 46 30 22 16 47 30 54 30 7 0 14 4 16 8 2 5 29 26 62 47
32 21 73 54 91 72 18 18 35 33 40 33 4 0 35 30 69 66 33 37 71 76 82 88 12 11
50 64 84 116 35 52 70 106 80 120 29 44 112 227 139 307 53 157 63 227 68 477
4 197 2 249 -10 295 -9 31 -22 90 -30 131 -22 115 -61 213 -151 375 -27 50
-61 104 -75 122 -14 17 -42 53 -61 80 -38 52 -86 100 -193 192 -69 59 -69 59
-89 39 -22 -22 -17 -38 6 -19 9 8 16 8 20 2 4 -5 2 -12 -4 -16 -15 -9 -12 -25
5 -25 8 0 31 -18 51 -39 57 -64 185 -225 192 -241 3 -8 18 -31 34 -51 15 -20
28 -41 28 -47 0 -5 7 -15 15 -22 8 -7 15 -20 15 -30 0 -10 7 -23 15 -30 8 -7
15 -20 15 -30 0 -10 7 -23 15 -30 8 -7 15 -21 15 -32 0 -11 5 -29 12 -41 18
-33 47 -119 48 -142 0 -11 7 -33 15 -49 8 -15 15 -44 15 -64 0 -20 7 -64 15
-97 28 -109 12 -430 -27 -555 -6 -19 -15 -51 -19 -70 -11 -52 -42 -136 -76
-202 -7 -14 -13 -33 -13 -41 0 -8 -7 -20 -15 -27 -8 -7 -15 -21 -15 -31 0 -11
-5 -19 -10 -19 -6 0 -14 -10 -19 -22 -5 -13 -21 -40 -35 -61 -14 -21 -26 -40
-26 -43 0 -5 -14 -24 -42 -55 -10 -10 -18 -21 -18 -23 0 -6 -74 -88 -125 -140
-71 -71 -196 -176 -210 -176 -4 0 -24 -13 -45 -30 -21 -16 -42 -30 -48 -30 -5
0 -15 -7 -22 -15 -7 -8 -20 -15 -30 -15 -10 0 -23 -7 -30 -15 -7 -8 -20 -15
-30 -15 -10 0 -23 -7 -30 -15 -7 -8 -21 -15 -30 -15 -10 0 -31 -6 -47 -14 -59
-29 -104 -46 -126 -46 -12 0 -35 -7 -51 -15 -15 -8 -43 -15 -61 -15 -17 0 -54
-7 -81 -15 -69 -21 -421 -21 -479 0 -22 8 -57 14 -78 15 -21 0 -48 5 -60 12
-12 6 -38 15 -57 19 -36 7 -82 22 -135 45 -57 23 -110 47 -125 55 -8 5 -24 13
-35 18 -11 5 -37 21 -58 35 -21 14 -40 26 -43 26 -19 0 -178 133 -264 221
-120 122 -130 134 -130 149 0 6 -7 13 -15 16 -8 4 -15 12 -15 20 0 7 -6 17
-13 21 -8 4 -17 15 -20 23 -4 8 -16 29 -27 45 -11 17 -25 42 -31 58 -6 15 -15
27 -20 27 -5 0 -9 8 -9 19 0 10 -7 24 -15 31 -8 7 -15 19 -15 28 0 14 -26 79
-51 124 -5 10 -9 27 -9 38 0 10 -6 34 -14 52 -39 92 -59 295 -51 516 4 101 11
178 20 203 8 23 15 56 15 73 0 17 7 40 15 50 8 11 15 30 15 43 0 22 18 69 46
125 8 14 14 33 14 41 0 8 7 20 15 27 8 7 15 20 15 30 0 10 7 23 15 30 8 7 15
21 15 30 0 10 4 20 8 22 4 2 19 21 32 43 63 106 183 245 307 355 38 35 144
115 163 123 8 4 29 16 45 27 17 11 40 24 52 29 11 5 24 15 28 20 3 6 15 11 25
11 10 0 25 7 34 15 8 8 22 15 31 15 9 0 29 6 43 14 55 28 103 46 125 46 12 1
33 7 47 15 14 8 40 14 58 15 18 0 49 7 70 15 54 23 481 23 547 1 25 -9 60 -16
78 -16 18 0 41 -7 51 -15 11 -8 34 -15 50 -15 17 0 40 -7 50 -15 11 -8 29 -15
40 -15 11 0 28 -7 38 -16 13 -12 37 -17 87 -17 59 0 73 4 104 27 63 49 93 123
80 202 -7 44 -92 134 -126 134 -12 0 -31 7 -41 15 -11 8 -29 15 -40 15 -12 0
-30 7 -40 15 -11 8 -34 15 -50 15 -17 1 -42 7 -56 15 -14 8 -42 14 -63 15 -21
0 -46 4 -55 9 -22 11 -84 17 -152 14z"/>
<path d="M2995 3460 c-4 -6 -3 -16 3 -22 6 -6 12 -6 17 2 4 6 3 16 -3 22 -6 6
-12 6 -17 -2z"/>
<path d="M3080 3390 c0 -5 5 -10 10 -10 6 0 10 -8 10 -17 0 -10 16 -36 35 -58
19 -22 35 -43 35 -47 0 -5 32 -42 70 -84 39 -41 77 -89 85 -105 9 -16 20 -29
25 -29 4 0 25 -28 46 -62 20 -35 43 -70 50 -78 22 -27 144 -274 144 -293 0
-10 7 -25 15 -33 8 -9 15 -24 15 -33 0 -10 7 -36 16 -57 9 -22 20 -52 25 -69
24 -95 48 -196 54 -235 4 -25 12 -53 17 -63 5 -9 9 -97 10 -195 1 -141 -2
-187 -15 -225 -10 -26 -17 -58 -17 -70 0 -42 -86 -353 -108 -392 -6 -11 -39
-76 -72 -144 -34 -68 -70 -136 -81 -150 -11 -14 -30 -41 -42 -58 -90 -133
-271 -333 -301 -333 -8 0 -17 -8 -21 -17 -3 -10 -24 -31 -46 -48 -22 -16 -48
-37 -57 -46 -25 -25 -195 -126 -271 -163 -36 -17 -73 -36 -81 -41 -8 -5 -35
-17 -60 -26 -25 -9 -70 -26 -100 -38 -30 -12 -84 -26 -120 -32 -36 -6 -69 -15
-74 -20 -6 -5 -22 -9 -37 -9 -14 0 -55 -9 -90 -21 -122 -39 -364 -41 -484 -5
-27 8 -88 25 -135 36 -174 43 -207 53 -285 87 -293 128 -433 221 -643 433 -69
69 -132 136 -141 150 -8 14 -36 52 -62 86 -26 33 -49 69 -53 80 -3 10 -20 42
-38 69 -18 28 -39 64 -47 80 -7 17 -17 38 -22 47 -16 32 -77 193 -92 243 -8
28 -32 104 -53 170 -21 66 -41 131 -45 145 -5 23 -6 22 -13 -11 -14 -65 7
-260 32 -306 7 -12 12 -34 12 -50 0 -15 7 -37 15 -47 8 -11 15 -29 15 -41 0
-12 7 -30 15 -41 8 -10 15 -29 15 -40 0 -12 7 -27 15 -34 8 -7 15 -20 15 -30
0 -10 7 -23 15 -30 8 -7 15 -21 15 -31 0 -10 4 -20 9 -24 6 -3 21 -30 36 -60
14 -30 30 -55 35 -55 6 0 10 -6 10 -14 0 -14 96 -150 149 -211 43 -50 203
-208 256 -254 28 -23 69 -54 92 -68 24 -14 43 -28 43 -33 0 -4 8 -10 18 -14 9
-3 31 -15 47 -26 17 -11 39 -24 50 -30 11 -5 27 -14 35 -19 8 -5 22 -12 30
-15 8 -3 23 -10 32 -16 10 -5 26 -15 35 -20 10 -6 25 -13 33 -16 8 -3 27 -12
42 -20 14 -8 35 -14 45 -14 10 0 24 -5 30 -11 6 -6 26 -14 44 -19 19 -4 48
-13 64 -18 153 -51 184 -54 565 -55 311 -1 447 7 481 29 7 4 31 11 54 15 45 8
97 25 137 45 14 8 35 14 46 14 11 0 25 7 32 15 7 8 19 15 26 15 19 0 201 95
241 126 17 13 34 24 38 24 8 0 159 114 198 149 37 34 165 161 197 198 51 56
164 213 183 253 4 8 16 29 27 45 10 17 29 50 41 75 12 25 25 52 30 60 5 8 12
22 15 30 3 8 12 27 20 42 8 14 14 34 14 45 0 10 7 27 15 37 8 11 15 31 15 45
0 14 7 35 15 45 8 11 15 32 15 47 0 14 7 43 15 62 8 20 15 55 15 77 0 23 5 50
11 61 14 27 14 610 0 637 -6 12 -11 39 -11 62 0 22 -7 57 -15 77 -8 19 -15 47
-15 62 -1 14 -7 37 -15 51 -8 14 -14 37 -15 51 0 15 -7 32 -15 39 -8 7 -15 21
-15 32 0 11 -6 32 -14 46 -7 15 -31 62 -52 105 -53 106 -66 131 -73 137 -8 6
-29 40 -38 60 -4 8 -20 34 -37 56 -17 23 -38 52 -46 64 -34 50 -88 107 -219
233 -96 92 -121 110 -121 87z"/>
<path d="M2810 3165 c0 -14 55 -56 58 -45 5 13 -31 50 -48 50 -5 0 -10 -2 -10
-5z"/>
<path d="M2312 2482 c-54 -45 -66 -76 -73 -197 -7 -114 -23 -193 -48 -235 -5
-8 -17 -33 -27 -55 -38 -81 -125 -185 -207 -248 -16 -12 -35 -28 -42 -34 -8
-7 -17 -13 -21 -13 -4 0 -14 -7 -23 -15 -53 -48 -62 -55 -71 -55 -15 0 -12
-20 5 -26 28 -11 102 13 161 52 62 41 204 180 204 200 0 6 7 17 16 25 18 15
80 136 99 194 7 22 18 74 25 115 29 171 33 182 69 202 l33 19 34 -26 c40 -30
49 -59 40 -123 -4 -26 -9 -60 -12 -77 -2 -16 -7 -48 -10 -70 -3 -22 -14 -59
-24 -81 -11 -23 -22 -55 -26 -70 -7 -32 -71 -153 -88 -169 -6 -5 -24 -30 -41
-55 -66 -99 -244 -246 -370 -304 -22 -11 -47 -23 -55 -28 -8 -4 -22 -11 -30
-14 -8 -3 -35 -14 -60 -24 -135 -53 -200 -59 -211 -19 -9 30 -9 924 0 963 3
16 18 38 33 49 25 19 31 19 68 7 23 -7 44 -18 48 -24 4 -6 9 -155 12 -331 l5
-320 25 -35 25 -35 6 45 c9 57 14 789 6 796 -3 4 -77 6 -164 6 l-158 0 0 -638
c0 -702 -5 -647 60 -626 28 10 75 22 155 42 54 13 114 35 203 74 17 8 39 17
47 20 8 3 29 15 45 26 17 11 39 24 50 30 84 42 197 138 306 257 32 35 98 135
118 180 5 11 15 24 20 28 6 3 11 17 11 29 0 13 7 29 15 36 8 7 15 24 15 39 0
14 7 35 15 45 8 11 15 34 15 50 0 17 7 49 15 71 9 26 14 82 15 162 l0 121 -46
46 c-45 46 -46 46 -112 46 -58 -1 -71 -4 -100 -28z"/>
</g>
</svg>
