<svg id="Layer_1" data-name="Layer 1" xmlns="http://www.w3.org/2000/svg" viewBox="0 0 180 180"><title>safari-pinned-tab</title><path d="M69.51,123.51V63.84h15.7v38.65c9-4.56,21.05-14.19,21.05-33a7.85,7.85,0,0,1,15.7,0c0,33.75-28.13,48.26-42.93,52.11C79,121.55,72.92,123.08,69.51,123.51Z"/><path d="M118.32,23.57a72.19,72.19,0,1,0,28,21.14A15.28,15.28,0,0,0,158.71,32,70.67,70.67,0,0,1,163.4,38,90,90,0,1,1,90,0c2.93,0,6.1.11,9.26.4a88.08,88.08,0,0,1,10.95,2,84.63,84.63,0,0,1,14.63,4.69c3.78,1.52,7.65,5,6.76,11.14C131.6,18.23,130.16,27.69,118.32,23.57Z"/></svg>